<?xml version="1.0" encoding="utf-8"?>
<!-- Svg Vector Icons : http://www.onlinewebfonts.com/icon -->
<!DOCTYPE svg PUBLIC "-//W3C//DTD SVG 1.1//EN" "http://www.w3.org/Graphics/SVG/1.1/DTD/svg11.dtd">
<svg version="1.1" xmlns="http://www.w3.org/2000/svg" xmlns:xlink="http://www.w3.org/1999/xlink" x="0px" y="0px" viewBox="0 0 1000 1000" enable-background="new 0 0 1000 1000" xml:space="preserve">
<metadata> Svg Vector Icons : http://www.onlinewebfonts.com/icon </metadata>
<g><g><path d="M924.3,700.4v222.3c0,37.3-30.2,67.4-67.4,67.4H143c-37.2,0-67.4-30.1-67.4-67.4V700.4c0-37.2,30.2-67.4,67.4-67.4c37.2,0,67.4,30.2,67.4,67.4v154.9h579.2V700.4c0-37.2,30.2-67.4,67.4-67.4C894.2,633,924.3,663.2,924.3,700.4z M452.4,758.1c13.2,13.2,30.4,19.7,47.6,19.7c17.3,0,34.5-6.6,47.7-19.7l202-202c26.4-26.3,26.4-68.9,0-95.2c-26.3-26.3-69-26.3-95.2,0l-87,87.1V77.4c0-37.2-30.1-67.4-67.4-67.4c-37.2,0-67.4,30.2-67.4,67.4v470.6l-87.1-87.1c-26.3-26.3-69-26.3-95.2,0c-26.3,26.3-26.3,69,0,95.2L452.4,758.1z"/></g><g></g><g></g><g></g><g></g><g></g><g></g><g></g><g></g><g></g><g></g><g></g><g></g><g></g><g></g><g></g></g>
</svg>